<svg width="36" height="36" viewBox="0 0 36 36" fill="none" xmlns="http://www.w3.org/2000/svg">
<rect width="36" height="36" rx="18" fill="#4A4A4A"/>
<g clip-path="url(#clip0_886_744)">
<path d="M12.3722 10.9355C12.3723 10.4776 12.5542 10.0386 12.878 9.7148C13.2017 9.39105 13.6408 9.20914 14.0986 9.20907L25.0871 9.20907C25.5449 9.20914 25.984 9.39105 26.3078 9.7148C26.6315 10.0386 26.8134 10.4776 26.8135 10.9355L26.8135 21.9239C26.8056 22.3766 26.6203 22.8081 26.2974 23.1254C25.9745 23.4428 25.5398 23.6206 25.0871 23.6206C24.6343 23.6206 24.1997 23.4428 23.8768 23.1254C23.5539 22.8081 23.3685 22.3766 23.3607 21.9239L23.2557 15.2088L11.6568 26.8077C11.333 27.1315 10.8938 27.3134 10.4358 27.3134C9.97789 27.3134 9.53871 27.1315 9.2149 26.8077C8.89108 26.4839 8.70917 26.0447 8.70917 25.5867C8.70917 25.1288 8.89108 24.6896 9.2149 24.3658L20.8138 12.7669L14.0986 12.6619C13.6408 12.6618 13.2017 12.4799 12.878 12.1562C12.5542 11.8324 12.3723 11.3933 12.3722 10.9355Z" fill="#F4F9FF"/>
</g>
<defs>
<clipPath id="clip0_886_744">
<rect width="24" height="24" fill="white" transform="translate(6 6)"/>
</clipPath>
</defs>
</svg>
