<svg width="36" height="36" viewBox="0 0 36 36" fill="none" xmlns="http://www.w3.org/2000/svg">
<g id="ic:round-home">
<rect width="36" height="36" rx="18" fill="#353535"/>
<path id="Vector (Stroke)" fill-rule="evenodd" clip-rule="evenodd" d="M17.2214 7.28764C17.6666 6.90412 18.3334 6.90412 18.7786 7.28764L28.6 15.7492C29.0887 16.1702 29.1362 16.8993 28.7062 17.3776C28.2762 17.856 27.5315 17.9026 27.0428 17.4816L25.8571 16.4601V25.8462C25.8571 26.4834 25.3295 27 24.6786 27H11.3214C10.6705 27 10.1429 26.4834 10.1429 25.8462V16.4601L8.95718 17.4816C8.46854 17.9026 7.72382 17.856 7.29382 17.3776C6.86381 16.8993 6.91134 16.1702 7.39999 15.7492L17.2214 7.28764ZM12.5 14.4293V24.6923H23.5V14.4293L18 9.69085L12.5 14.4293Z" fill="#F4F9FF"/>
</g>
</svg>
