<svg width="18" height="19" viewBox="0 0 18 19" fill="none" xmlns="http://www.w3.org/2000/svg">
<g id="solar:global-linear">
<g id="Group">
<path id="Vector" d="M16.5 9.50001C16.5 10.485 16.306 11.4603 15.9291 12.3703C15.5522 13.2803 14.9997 14.1071 14.3032 14.8036C13.6067 15.5 12.7799 16.0525 11.8699 16.4295C10.9599 16.8064 9.98461 17.0004 8.99964 17.0004C8.01468 17.0004 7.03936 16.8064 6.12937 16.4295C5.21939 16.0525 4.39255 15.5 3.69608 14.8036C2.9996 14.1071 2.44713 13.2803 2.0702 12.3703C1.69327 11.4603 1.49927 10.485 1.49927 9.50001C1.49927 7.51079 2.28948 5.60304 3.69608 4.19644C5.10267 2.78985 7.01042 1.99963 8.99964 1.99963C10.9889 1.99963 12.8966 2.78985 14.3032 4.19644C15.7098 5.60304 16.5 7.51079 16.5 9.50001Z" stroke="#888888" stroke-width="1.2"/>
<path id="Vector_2" d="M12 9.5C12 10.4847 11.922 11.4605 11.7713 12.3702C11.6213 13.28 11.4 14.1065 11.121 14.8032C10.8428 15.5 10.512 16.052 10.1483 16.4293C9.78379 16.8058 9.39379 17 9.00004 17C8.60629 17 8.21629 16.8058 7.85254 16.4293C7.48804 16.052 7.15729 15.4992 6.87904 14.8032C6.60004 14.1065 6.37879 13.2807 6.22804 12.3702C6.07426 11.4213 5.99801 10.4614 6.00004 9.5C6.00004 8.51525 6.07729 7.5395 6.22804 6.62975C6.37879 5.72 6.60004 4.8935 6.87904 4.19675C7.15729 3.5 7.48804 2.948 7.85179 2.57075C8.21629 2.195 8.60629 2 9.00004 2C9.39379 2 9.78379 2.19425 10.1475 2.57075C10.512 2.948 10.8428 3.50075 11.121 4.19675C11.4 4.8935 11.6213 5.71925 11.7713 6.62975C11.922 7.5395 12 8.51525 12 9.5Z" stroke="#888888" stroke-width="1.2"/>
<path id="Vector_3" d="M1.5 9.5H16.5" stroke="#888888" stroke-width="1.2" stroke-linecap="round"/>
</g>
</g>
</svg>
