<svg width="111" height="144" viewBox="0 0 111 144" fill="none" xmlns="http://www.w3.org/2000/svg">
<g opacity="0.23">
<path d="M27.0434 138.122C27.0434 138.122 27.2934 131.482 58.7234 132.362C90.1534 133.252 85.3735 138.122 85.3735 138.122C85.3735 138.122 86.4534 143.582 58.7234 143.292C30.9834 142.992 26.8834 141.082 27.0434 138.122Z" fill="#2D2119"/>
</g>
<path d="M62.9337 134.436C62.9337 134.436 60.4037 136.376 56.1837 136.706C56.1837 136.706 53.3437 138.536 45.8637 137.816C45.8637 137.816 37.8837 137.486 35.9537 133.626C35.9537 133.626 32.2137 129.316 31.4937 122.276C29.0937 117.506 23.3237 110.026 29.6837 95.2656" fill="#FBBF58"/>
<path d="M49.2044 139.183C48.1744 139.183 47.0244 139.133 45.7444 139.013C44.9244 138.983 37.2144 138.543 34.9444 134.303C34.3144 133.533 31.0544 129.273 30.3144 122.633C30.0944 122.203 29.8444 121.753 29.5844 121.273C26.9944 116.513 22.6444 108.553 28.5644 94.813C28.8244 94.203 29.5344 93.923 30.1344 94.183C30.7444 94.443 31.0244 95.153 30.7644 95.753C25.3044 108.423 29.1444 115.463 31.6844 120.123C31.9944 120.703 32.2944 121.243 32.5444 121.743C32.6144 121.873 32.6544 122.013 32.6644 122.163C33.3344 128.703 36.8044 132.803 36.8444 132.843C36.9144 132.923 36.9644 133.003 37.0144 133.093C38.3244 135.733 43.8744 136.533 45.8944 136.623C52.8044 137.283 55.5044 135.703 55.5344 135.693C55.6944 135.593 55.8844 135.533 56.0744 135.513C59.8444 135.213 62.1644 133.503 62.1944 133.483C62.7244 133.083 63.4744 133.193 63.8744 133.713C64.2744 134.243 64.1744 134.983 63.6444 135.383C63.5344 135.473 60.8844 137.463 56.5344 137.873C55.7644 138.273 53.5244 139.183 49.1944 139.183H49.2044Z" fill="#241914"/>
<path d="M45.6719 126.34C45.6719 126.34 47.6719 127.77 51.2819 129.27C51.2819 129.27 52.1519 134.49 54.0619 136.38C57.2419 139.52 69.1319 137.7 69.1319 137.7C76.2219 136.68 77.6219 127.11 77.6219 127.11C89.4719 113.7 79.7319 98.4297 79.7319 98.4297" fill="#FBBF58"/>
<path d="M62.1539 139.435C58.7139 139.435 54.9839 138.975 53.2139 137.235C51.4539 135.495 50.5339 131.695 50.2139 130.125C46.9039 128.685 45.0539 127.375 44.9739 127.325C44.4339 126.945 44.3139 126.195 44.6939 125.655C45.0739 125.115 45.8239 124.985 46.3639 125.375C46.3839 125.385 48.3239 126.755 51.7439 128.175C52.1239 128.335 52.3939 128.675 52.4639 129.085C52.6939 130.435 53.5739 134.225 54.9039 135.545C56.9039 137.525 64.5839 137.205 68.9539 136.535C75.0739 135.655 76.4239 127.035 76.4439 126.955C76.4739 126.725 76.5839 126.515 76.7339 126.335C87.3039 113.855 83.1939 104.055 83.5139 104.675C85.0439 107.715 78.5439 97.7949 79.1039 97.4349C79.6639 97.0849 80.4039 97.2449 80.7539 97.8049C80.8539 97.9649 90.7139 113.795 78.7539 127.665C78.4039 129.545 76.4539 137.875 69.3139 138.905C68.6839 139.005 65.5639 139.445 62.1639 139.445L62.1539 139.435Z" fill="#241914"/>
<path d="M33.3732 121.381C33.3732 121.381 24.2432 118.521 22.2032 93.871C22.2032 93.871 16.6232 74.121 38.0032 72.961C38.0032 72.961 76.7432 64.731 82.1632 88.771C82.1632 88.771 90.8532 114.981 75.8732 123.971C75.8732 123.971 55.7132 129.151 33.3832 121.381H33.3732Z" fill="#FABE57"/>
<path d="M25.9534 76.6953C25.9534 76.6953 10.9434 81.8053 12.3734 97.8353C12.3734 97.8353 14.4034 112.445 25.9534 113.255" fill="#FABE57"/>
<path d="M26.1154 114.201C26.1154 114.201 26.0654 114.201 26.0354 114.201C13.7154 113.331 11.4454 97.9613 11.4254 97.8113C9.92541 81.0313 25.5954 75.5013 25.7554 75.4513C26.3454 75.2513 26.9854 75.5613 27.1854 76.1513C27.3854 76.7413 27.0754 77.3813 26.4854 77.5813C25.9054 77.7813 12.3354 82.6213 13.6654 97.5613C13.6754 97.6413 15.7054 111.221 26.2054 111.961C26.8254 112.001 27.2954 112.541 27.2454 113.161C27.2054 113.751 26.7154 114.211 26.1254 114.211L26.1154 114.201Z" fill="#241914"/>
<path d="M30.9356 122.145C30.5356 122.145 30.1756 121.905 29.9356 121.545C22.0956 109.515 25.6656 91.1652 25.8956 90.6252C26.1356 90.0552 26.8056 89.7852 27.3656 90.0252C27.9356 90.2652 28.2056 90.9252 27.9656 91.4952C27.9156 91.6152 25.6156 111.165 31.9256 120.495C32.2756 121.005 32.0056 121.725 31.4556 122.015C31.2856 122.105 31.1056 122.145 30.9356 122.145Z" fill="#241914"/>
<path d="M78.9025 124.834C78.5525 124.834 79.0325 125.964 78.8125 125.664C78.4525 125.164 76.9325 127.754 78.2625 124.394C78.3225 124.244 90.0625 113.594 80.6925 86.6637C80.4925 86.0737 80.8025 85.4337 81.3825 85.2337C81.9725 85.0337 82.6325 85.3337 82.8125 85.9237C91.8125 114.624 79.9825 125.954 79.4325 126.354C79.2325 126.494 79.1725 125.654 78.8925 124.824L78.9025 124.834Z" fill="#241914"/>
<path d="M37.2537 91.3904C37.2537 91.3904 37.1837 85.9704 43.9937 87.3304C43.9937 87.3304 51.2137 88.6604 55.2937 87.1104C55.2937 87.1104 60.3337 85.4204 62.2437 88.5604C62.2437 88.5604 65.5937 98.9804 59.6537 107.36C59.6537 107.36 54.8837 114.31 49.3037 114.03C49.3037 114.03 42.7637 113.44 39.2237 105.84C39.2237 105.84 36.7737 100.5 37.2537 91.4004V91.3904Z" fill="white"/>
<path d="M36.9331 11.7304C36.9331 11.7304 35.4231 3.2104 27.2331 1.3604C27.2331 1.3604 16.7931 -0.9096 15.9531 8.4204C15.9531 8.4204 15.1131 15.0204 22.7431 16.7604" fill="#FABE57"/>
<path d="M22.7425 17.8828C22.6625 17.8828 22.5725 17.8828 22.4925 17.8528C13.9725 15.9128 14.8225 8.35278 14.8325 8.28278C15.0925 5.45278 16.2125 3.26278 18.1625 1.83278C21.8825 -0.907219 27.2525 0.222779 27.4725 0.272779C36.2925 2.26278 37.9725 11.1728 38.0425 11.5428C38.1525 12.1528 37.7425 12.7428 37.1325 12.8428C36.5225 12.9528 35.9325 12.5428 35.8325 11.9328C35.7725 11.5928 34.3225 4.11278 26.9925 2.46278C26.9625 2.46278 22.3925 1.51278 19.4925 3.65278C18.0925 4.68278 17.2825 6.32278 17.0825 8.52278C17.0525 8.78278 16.5025 14.1828 23.0025 15.6628C23.6125 15.8028 23.9925 16.4028 23.8525 17.0128C23.7325 17.5328 23.2725 17.8928 22.7525 17.8928L22.7425 17.8828Z" fill="#241914"/>
<path d="M71.2425 83.1939C73.5325 83.4539 76.4625 82.9539 76.4625 82.9539C98.9325 80.2439 101.712 64.1739 101.712 64.1739C103.512 55.0239 101.462 49.4539 100.032 43.8139C93.9525 19.8239 78.0525 12.6639 78.0525 12.6639C51.0325 -2.6161 24.8825 13.8039 24.8825 13.8039C24.8825 13.8039 16.0425 19.2339 9.92248 29.8139C7.07248 34.7339 3.02247 39.0039 1.74247 46.6139C1.74247 46.6139 -3.43753 65.0339 14.9625 74.0939C18.2925 75.6539 24.5325 78.7639 35.1825 79.6139" fill="#FABE57"/>
<path d="M37.8947 40.4992C37.8947 40.4992 37.0747 39.6491 35.7347 39.7791C34.8547 39.8691 33.7247 40.2892 33.1947 41.9692C33.1947 41.9692 31.8447 46.8992 36.7247 45.9792C36.7247 45.9792 38.0547 45.7492 38.5447 44.2592C38.8447 43.3392 39.0347 41.6192 37.9047 40.4992H37.8947Z" fill="#241914"/>
<path d="M35.6027 46.3816C34.6727 46.3816 33.9527 46.1116 33.4627 45.5816C32.2827 44.3016 32.9027 42.0016 32.9227 41.9016C33.3827 40.4416 34.3227 39.6415 35.7127 39.5015C37.1527 39.3515 38.0327 40.2316 38.1027 40.3016C39.2427 41.4316 39.2027 43.1915 38.8127 44.3515C38.2727 45.9815 36.8327 46.2516 36.7727 46.2616C36.3527 46.3416 35.9627 46.3816 35.6027 46.3816ZM36.0227 40.0516C35.9427 40.0516 35.8527 40.0516 35.7627 40.0616C34.6027 40.1816 33.8527 40.8316 33.4627 42.0616C33.4627 42.0716 32.9127 44.1516 33.8727 45.2016C34.4127 45.7816 35.3527 45.9615 36.6627 45.7115C36.7127 45.7115 37.8427 45.4815 38.2627 44.1815C38.5927 43.1715 38.6427 41.6516 37.6927 40.7016C37.6927 40.7016 37.0527 40.0516 36.0227 40.0516Z" fill="#241914"/>
<path d="M89.0556 25.3589C96.5156 25.6689 97.5456 18.5789 97.5456 18.5789C98.8556 9.14893 91.0156 8.59893 91.0156 8.59893C81.9856 8.13893 79.2656 15.4589 79.2656 15.4589" fill="#FABE57"/>
<path d="M89.5132 26.5043C89.3432 26.5043 89.1732 26.5043 89.0032 26.4943C88.3832 26.4643 87.9032 25.9443 87.9232 25.3243C87.9532 24.7043 88.4632 24.1943 89.0932 24.2443C95.4732 24.4843 96.3832 18.6643 96.4232 18.4143C96.8032 15.6643 96.3832 13.4943 95.1732 11.9743C93.5432 9.94427 90.9532 9.71426 90.9232 9.71426C82.8632 9.29426 80.4032 15.5843 80.3032 15.8543C80.0832 16.4343 79.4432 16.7243 78.8532 16.5143C78.2732 16.2943 77.9832 15.6543 78.1932 15.0743C78.2232 14.9943 81.3532 6.97427 91.0632 7.48427C91.2232 7.49427 94.6432 7.76427 96.9032 10.5543C98.5432 12.5743 99.1332 15.3343 98.6532 18.7443C98.2532 21.4843 95.8332 26.5043 89.5132 26.5043Z" fill="#241914"/>
<path d="M45.0051 47.9739C45.0051 47.9739 43.8351 49.5839 44.5451 51.5239C45.0251 52.8339 47.3851 54.7939 50.2451 55.0739C50.2451 55.0739 53.3351 54.8339 55.4051 53.9139C57.0951 53.1639 57.9051 50.3939 56.5151 48.5239C56.5151 48.5239 55.0651 46.7839 51.1551 46.3239C49.1051 46.0839 46.3951 46.0139 44.9951 47.9739H45.0051Z" fill="#241914"/>
<path d="M101.783 59.1291C96.5034 59.0791 94.7434 58.2491 93.5934 57.1291C92.9534 56.4991 92.4934 54.1891 94.5834 53.2291C95.7434 52.6991 97.9734 52.9891 101.473 52.2191C101.743 52.1591 102.553 59.1291 101.773 59.1191L101.783 59.1291Z" fill="#241914"/>
<path d="M96.4737 71.239C93.1737 70.609 90.2737 67.669 90.2337 67.639C87.4937 65.109 89.6237 61.779 91.8837 61.869C92.1337 61.879 95.1337 61.749 100.774 62.959C101.194 63.049 99.3137 71.779 96.4737 71.239Z" fill="#241914"/>
<path d="M2.71422 43.371C3.62422 43.811 5.69422 44.241 6.65422 44.341C9.32422 44.621 10.3742 44.051 10.4042 44.051C11.0642 43.961 12.1642 42.951 12.3142 41.571C12.4142 40.701 12.1442 39.921 10.9842 39.281C10.7742 39.171 8.19422 38.241 5.82422 36.481C5.55422 36.281 1.87422 42.961 2.71422 43.371Z" fill="#241914"/>
<path d="M1.79316 55.2452C7.54316 56.3952 10.4232 54.1852 10.7732 53.5752C11.1632 52.8952 11.3932 52.0352 11.1032 50.6452C10.9532 49.9252 10.5132 49.2652 9.41316 48.8952C9.17316 48.8152 4.29316 48.3552 1.92316 47.0352C1.54316 46.8252 0.763162 55.0452 1.79316 55.2452Z" fill="#241914"/>
<path d="M77.1148 13.6094C77.1148 13.6094 79.8548 14.7694 81.7948 15.7694L79.3648 18.1394L76.2148 16.2694L77.1148 13.6194V13.6094Z" fill="#FABE57"/>
<path d="M47.0355 22.9225C47.2555 23.9725 48.0155 25.3625 50.6855 24.9225C54.3955 24.3225 58.5555 25.4725 58.6055 25.5025C60.5555 26.4425 61.7255 25.2125 62.1755 24.0825C62.4955 23.2625 62.4155 21.5625 61.2355 20.8825C60.1755 20.2625 55.7355 18.3325 49.5455 19.6225C46.8755 20.1725 46.9155 22.3725 47.0255 22.9225H47.0355Z" fill="#221611"/>
<path d="M68.283 18.4238C67.773 19.0638 66.673 19.3538 65.653 19.0538C61.943 17.9638 58.633 16.7438 55.893 16.4838C51.603 16.0638 46.483 17.0738 46.423 17.0838C45.003 17.1838 44.293 16.5038 43.943 15.4638C43.673 14.6438 44.033 13.2338 45.373 12.5738C47.813 11.3638 53.873 10.6938 58.193 11.4138C60.713 11.8338 65.923 12.9638 68.323 15.5338C68.613 15.8438 69.253 17.1938 68.273 18.4338L68.283 18.4238Z" fill="#221611"/>
<path d="M62.8053 6.69191C63.5153 7.45191 61.4953 11.2019 61.1653 12.1519C60.0753 15.3319 59.3753 17.8019 58.5153 20.6419C57.3153 24.6019 56.8553 26.4519 56.8453 26.5019C56.5053 27.7319 54.7953 28.6419 53.6153 28.3019C52.0553 27.8519 51.7153 26.4819 51.6853 25.5219C51.6153 23.1919 51.7353 20.8819 52.4553 17.4219C52.9453 15.0619 54.1353 8.57191 55.6053 6.09191C55.8053 5.76191 62.0053 5.82191 62.8053 6.68191V6.69191Z" fill="#221611"/>
<path d="M32.7227 60.2109C32.7227 60.2109 35.6627 61.2409 37.3627 65.9409C37.3627 65.9409 39.0727 69.9309 42.6627 71.1809C42.6627 71.1809 47.6427 73.3709 54.2627 72.1509C55.6027 71.9009 59.8727 71.3409 67.5827 63.8109" fill="#942C2C"/>
<path d="M50.1838 73.64C45.5438 73.64 42.3838 72.28 42.2138 72.2C38.2838 70.84 36.4138 66.56 36.3338 66.38C34.8338 62.25 32.4338 61.3 32.3338 61.26C31.7538 61.04 31.4538 60.4 31.6738 59.82C31.8838 59.24 32.5138 58.94 33.0938 59.14C33.2338 59.19 36.5538 60.41 38.4238 65.55C38.4238 65.55 39.9838 69.05 43.0338 70.11C43.1638 70.16 47.8938 72.18 54.0638 71.03L54.2038 71C55.5338 70.76 59.5838 70.03 66.8038 62.98C67.2438 62.55 67.9638 62.55 68.3938 63C68.8238 63.44 68.8138 64.16 68.3738 64.59C60.6538 72.12 56.2538 72.91 54.6038 73.21L54.4738 73.23C52.9438 73.51 51.5038 73.62 50.1838 73.62V73.64Z" fill="#241914"/>
<path d="M57.2852 63.2812C57.2852 63.2812 57.5751 65.5913 58.3051 66.9413C58.5451 67.3913 58.9551 68.0413 59.4951 68.0013C59.4951 68.0013 59.8551 68.0813 60.4951 67.5613C61.0751 67.1013 62.3551 65.5712 62.2251 64.6712" fill="white"/>
<path d="M37.4648 61.7734C37.4648 61.7734 37.6348 62.9234 38.3448 64.3434C38.5748 64.8134 38.8648 65.2234 39.2048 65.3434C39.2048 65.3434 39.8848 65.5834 40.8748 64.3534C41.2848 63.8434 42.1748 62.6734 42.1248 62.0234" fill="white"/>
<path d="M49.6834 57.7422L44.4234 60.9022L43.7734 66.3022L56.5534 63.9622L49.6834 57.7422Z" fill="#942C2C"/>
<path d="M72.5153 60.5359C72.5153 60.5359 72.0253 67.2959 58.5353 63.7259C58.5353 63.7259 55.3453 62.8359 52.6453 60.8759C51.3053 59.9059 50.0553 58.2059 50.0353 55.3359C50.0353 55.3359 49.7653 57.9059 46.7953 59.7459C44.8753 60.9359 41.3853 61.8659 36.1453 61.3259C36.1453 61.3259 26.6953 60.8959 27.5153 55.5959" fill="#FABE57"/>
<path d="M65.4046 65.8916C63.3546 65.8916 60.9646 65.5316 58.2346 64.8116C58.0846 64.7716 54.8046 63.8416 51.9746 61.7816C51.1346 61.1716 50.1946 60.2216 49.5746 58.8016C49.0446 59.4516 48.3246 60.1116 47.3746 60.7116C45.8746 61.6416 42.4046 63.1116 36.0146 62.4516C35.4446 62.4316 29.7746 62.0816 27.3746 59.1616C26.5146 58.1116 26.1746 56.8216 26.3846 55.4316C26.4746 54.8216 27.0446 54.3916 27.6646 54.4916C28.2746 54.5916 28.6946 55.1616 28.6046 55.7716C28.4846 56.5416 28.6446 57.1616 29.1146 57.7316C30.6146 59.5616 34.7146 60.1416 36.1746 60.2016C42.1746 60.8116 45.1646 59.4216 46.1846 58.7916C48.6046 57.2816 48.8946 55.2916 48.9046 55.2016C48.9846 54.6116 49.5246 54.1916 50.0946 54.2116C50.6846 54.2516 51.1446 54.7316 51.1546 55.3216C51.1646 57.3716 51.8846 58.9316 53.3046 59.9516C55.7946 61.7616 58.8046 62.6216 58.8346 62.6316C65.3846 64.3616 68.4946 63.5316 69.9546 62.5216C71.2546 61.6216 71.3946 60.4716 71.3946 60.4216C71.4646 59.8116 71.9846 59.3416 72.6146 59.4116C73.2246 59.4616 73.6846 59.9916 73.6346 60.6016C73.5746 61.4116 73.0246 63.0916 71.3146 64.3116C69.8546 65.3516 67.8746 65.8816 65.4046 65.8816V65.8916Z" fill="#241914"/>
<path d="M80.4046 15.1702C80.1946 15.1702 79.9746 15.1102 79.7846 14.9802C78.5646 14.1702 77.5746 13.6702 77.5546 13.6702C60.7646 4.18017 44.4246 6.95017 33.6746 10.9402C33.0946 11.1602 32.4446 10.8602 32.2246 10.2802C32.0046 9.70017 32.3046 9.05017 32.8846 8.83017C42.0546 5.43017 60.1946 1.28017 78.6046 11.6902C78.6046 11.6902 79.6746 12.2302 81.0146 13.1202C81.5346 13.4602 81.6746 14.1602 81.3346 14.6802C81.1146 15.0102 80.7646 15.1802 80.3946 15.1802L80.4046 15.1702Z" fill="#241914"/>
<path d="M76.4636 84.0719C75.8836 84.0719 75.3936 83.6219 75.3436 83.0419C75.2936 82.4219 75.7536 81.8819 76.3736 81.8319C97.8036 80.1019 100.584 64.1519 100.604 63.9919C102.154 56.1319 100.794 51.0319 99.4736 46.1019C99.2936 45.4319 99.1136 44.7619 98.9436 44.0919C97.1836 37.1619 94.4236 31.0019 90.7336 25.7619C90.3736 25.2519 90.4936 24.5519 91.0036 24.1919C91.5136 23.8319 92.2136 23.9519 92.5736 24.4619C96.4236 29.9219 99.2936 36.3419 101.124 43.5419C101.294 44.2019 101.464 44.8619 101.644 45.5219C102.964 50.4619 104.454 56.0619 102.814 64.3919C102.794 64.5319 99.7236 82.2119 76.5436 84.0819C76.5136 84.0819 76.4836 84.0819 76.4536 84.0819L76.4636 84.0719Z" fill="#241914"/>
<path d="M35.0837 81.3662C35.0237 81.3662 34.9537 81.3662 34.8937 81.3462C32.4837 80.9362 31.0837 80.6562 31.0837 80.6562C23.3337 79.2462 17.7637 76.6362 14.7737 75.2362L14.5037 75.1062C-3.9563 66.0262 0.333707 47.6462 0.653707 46.3762C1.67371 40.4362 4.24371 36.5462 6.73371 32.7762C7.53371 31.5662 8.2837 30.4262 8.9737 29.2462C15.1637 18.5362 23.9437 13.0662 24.3237 12.8362C24.8537 12.5162 25.5437 12.6762 25.8737 13.2062C26.2037 13.7362 26.0337 14.4262 25.5037 14.7562C25.4137 14.8062 16.8237 20.1862 10.9237 30.3762C10.2037 31.6162 9.3937 32.8462 8.6137 34.0262C6.2437 37.6062 3.80371 41.3062 2.87371 46.8062C2.87371 46.8462 2.8637 46.8862 2.8437 46.9262C2.6437 47.6462 -1.83629 64.5762 15.4837 73.0862L15.7337 73.2062C18.6337 74.5662 24.0337 77.0862 31.5237 78.4462C31.5537 78.4462 32.9337 78.7262 35.2937 79.1262C35.9037 79.2262 36.3137 79.8062 36.2137 80.4262C36.1237 80.9762 35.6437 81.3662 35.1037 81.3662H35.0837Z" fill="#241914"/>
<path d="M72.3248 46.2194C72.3248 46.2194 70.9648 45.2094 69.2348 45.4194C67.6048 45.6194 66.3248 45.8894 65.7448 46.7094C65.7448 46.7094 64.5948 48.4994 67.1648 48.9194C67.9248 49.0394 69.1148 48.9194 70.4548 49.4794C70.4548 49.4794 73.1248 51.2994 73.7048 49.7394C74.0048 48.9494 73.8148 47.2194 72.3248 46.2294V46.2194Z" fill="#241914"/>
<path d="M72.7419 50.6436C71.7019 50.6436 70.4519 49.8137 70.2919 49.7037C69.4319 49.3537 68.5819 49.3037 67.9019 49.2637C67.6119 49.2437 67.3419 49.2337 67.1119 49.1937C66.1619 49.0437 65.5619 48.6837 65.3119 48.1337C64.9719 47.3837 65.4819 46.5837 65.5019 46.5537C66.1319 45.6737 67.3819 45.3537 69.1919 45.1337C70.9519 44.9137 72.3619 45.8937 72.4819 45.9837C74.0719 47.0537 74.3119 48.9036 73.9619 49.8236C73.8219 50.2036 73.5619 50.4536 73.2019 50.5736C73.0519 50.6236 72.9019 50.6436 72.7419 50.6436ZM65.9719 46.8636C65.9719 46.8636 65.6219 47.4336 65.8319 47.9036C65.9919 48.2636 66.4719 48.5137 67.2019 48.6337C67.4119 48.6637 67.6619 48.6837 67.9319 48.6937C68.6519 48.7337 69.5519 48.7937 70.5519 49.2037C71.0419 49.5337 72.3219 50.2536 73.0319 50.0336C73.2219 49.9736 73.3519 49.8437 73.4319 49.6237C73.6719 48.9737 73.5519 47.3737 72.1619 46.4437H72.1519C72.1519 46.4437 70.8619 45.4936 69.2619 45.6836C67.6419 45.8836 66.4619 46.1536 65.9719 46.8536V46.8636Z" fill="#241914"/>
<path d="M75.2447 66.5018C75.2447 66.5018 74.0947 57.8518 80.2247 57.8518C80.2247 57.8518 85.3347 57.7118 84.2447 64.9318C84.2447 64.9318 91.9447 65.6818 93.8447 71.6018C93.8447 71.6018 95.2747 76.4318 93.1647 80.8618C93.1647 80.8618 96.0947 88.4218 93.4347 94.5518C93.4347 94.5518 91.0547 101.432 82.6047 101.432C82.6047 101.432 73.6847 101.632 71.6447 92.8518C71.6447 92.8518 70.2147 86.3818 72.5947 80.0518C72.5947 80.0518 69.9147 72.1518 75.2447 66.5018Z" fill="#FABE57"/>
<path d="M82.573 102.562C81.963 102.562 72.703 102.392 70.543 93.1123C70.483 92.8323 69.113 86.4723 71.403 80.0223C70.923 78.3023 69.403 71.4623 74.063 66.1223C73.953 64.7123 73.883 60.8823 75.913 58.5723C76.983 57.3523 78.423 56.7423 80.213 56.7423C80.263 56.7423 82.463 56.7023 84.023 58.4723C85.163 59.7623 85.653 61.6223 85.473 64.0123C87.853 64.4823 93.243 66.1123 94.903 71.2823C94.973 71.5123 96.353 76.3023 94.363 80.9423C94.973 82.7323 96.913 89.3623 94.453 95.0323C94.453 95.0323 91.733 102.592 82.593 102.592C82.593 102.592 82.583 102.592 82.563 102.592L82.573 102.562ZM80.243 58.9823C79.103 58.9823 78.243 59.3323 77.613 60.0523C76.123 61.7623 76.193 65.1823 76.353 66.3623C76.393 66.7023 76.293 67.0323 76.053 67.2823C71.273 72.3623 73.633 79.6323 73.653 79.7023C73.733 79.9523 73.733 80.2123 73.643 80.4623C71.413 86.3923 72.723 92.5623 72.733 92.6223C74.533 100.372 82.253 100.322 82.573 100.322C90.093 100.322 92.273 94.4423 92.363 94.1923C94.833 88.4923 92.133 81.3523 92.103 81.2823C91.993 80.9923 92.003 80.6723 92.133 80.3923C94.023 76.4223 92.763 71.9723 92.753 71.9323C91.113 66.8223 84.193 66.0723 84.123 66.0623C83.813 66.0323 83.533 65.8723 83.343 65.6323C83.153 65.3923 83.073 65.0823 83.123 64.7723C83.453 62.5823 83.193 60.9223 82.363 59.9723C81.523 59.0023 80.323 58.9823 80.243 58.9823Z" fill="#241914"/>
<path d="M78.5547 71.9332C78.5547 71.9332 82.4047 71.5032 82.7047 74.7232C82.7047 74.7232 82.9747 77.3832 80.2747 78.1432" fill="#FABE57"/>
<path d="M80.2747 79.2705C79.7847 79.2705 79.3347 78.9505 79.1947 78.4505C79.0247 77.8505 79.3747 77.2305 79.9747 77.0605C81.6447 76.5905 81.6147 75.1105 81.5947 74.8205C81.5447 74.2805 81.3547 73.8705 81.0047 73.5905C80.2947 73.0105 79.0547 73.0005 78.6847 73.0405C78.0647 73.1205 77.5147 72.6605 77.4447 72.0505C77.3747 71.4305 77.8247 70.8805 78.4347 70.8105C78.6747 70.7805 80.8647 70.5805 82.4147 71.8505C83.2347 72.5105 83.7147 73.4705 83.8247 74.6105C83.9547 75.8505 83.4347 78.4105 80.5847 79.2205C80.4847 79.2505 80.3747 79.2605 80.2747 79.2605V79.2705Z" fill="#241914"/>
<path d="M110.325 32.7266C110.325 32.7266 101.945 35.7666 101.195 35.9466Z" fill="#FBBF58"/>
</svg>
